<svg width="22" height="22" viewBox="0 0 22 22" fill="none" xmlns="http://www.w3.org/2000/svg">
<path d="M20.999 9.77132C20.7427 7.67043 19.8179 5.70488 18.3585 4.15926C16.8992 2.61364 14.981 1.56818 12.8818 1.17424C10.7825 0.780296 8.6112 1.05833 6.68214 1.96808C4.75308 2.87784 3.16642 4.37209 2.15191 6.23448M6.29858 6.93031L2.40386 6.93031C1.80387 6.93031 1.31749 6.44857 1.31749 5.85432L1.31749 1.9968" stroke="#ffffff" stroke-width="2" stroke-linecap="round"/>
<path d="M1.00034 12.239C1.25873 14.3382 2.18453 16.3016 3.64386 17.8453C5.10319 19.3889 7.02041 20.4329 9.11829 20.8261C11.2162 21.2194 13.386 20.9416 15.3139 20.0329C17.2419 19.1242 18.828 17.6317 19.8431 15.7712M15.6996 15.0697L19.5943 15.0697C20.1943 15.0697 20.6807 15.5514 20.6807 16.1457L20.6807 20.0032" stroke="#ffffff" stroke-width="2" stroke-linecap="round"/>
</svg>
