<svg width="24" height="24" viewBox="0 0 24 24" fill="none" xmlns="http://www.w3.org/2000/svg">
<path d="M12 24C18.6274 24 24 18.6274 24 12C24 5.37258 18.6274 0 12 0C5.37258 0 0 5.37258 0 12C0 18.6274 5.37258 24 12 24Z" fill="#F0F0F0"/>
<path d="M2.48093 4.69421C1.53832 5.9206 0.827556 7.33412 0.413696 8.8697H6.65641L2.48093 4.69421Z" fill="#0052B4"/>
<path d="M23.5869 8.8697C23.173 7.33417 22.4622 5.92065 21.5197 4.69426L17.3443 8.8697H23.5869Z" fill="#0052B4"/>
<path d="M0.413696 15.1306C0.827603 16.6661 1.53837 18.0796 2.48093 19.3059L6.65627 15.1306H0.413696Z" fill="#0052B4"/>
<path d="M19.3061 2.48073C18.0798 1.53812 16.6663 0.827358 15.1307 0.413452V6.65612L19.3061 2.48073Z" fill="#0052B4"/>
<path d="M4.69446 21.5194C5.92085 22.462 7.33436 23.1728 8.8699 23.5867V17.3441L4.69446 21.5194Z" fill="#0052B4"/>
<path d="M8.86985 0.413452C7.33432 0.827358 5.9208 1.53812 4.69446 2.48069L8.86985 6.65608V0.413452Z" fill="#0052B4"/>
<path d="M15.1307 23.5867C16.6663 23.1728 18.0798 22.462 19.3061 21.5194L15.1307 17.3441V23.5867Z" fill="#0052B4"/>
<path d="M17.3443 15.1306L21.5197 19.306C22.4622 18.0796 23.173 16.6661 23.5869 15.1306H17.3443Z" fill="#0052B4"/>
<path d="M23.8984 10.4348H13.5653H13.5653V0.101578C13.0529 0.034875 12.5305 0 12 0C11.4694 0 10.9471 0.034875 10.4348 0.101578V10.4347V10.4347H0.101578C0.034875 10.9471 0 11.4695 0 12C0 12.5306 0.034875 13.0529 0.101578 13.5652H10.4347H10.4347V23.8984C10.9471 23.9651 11.4694 24 12 24C12.5305 24 13.0529 23.9652 13.5652 23.8984V13.5653V13.5653H23.8984C23.9651 13.0529 24 12.5306 24 12C24 11.4695 23.9651 10.9471 23.8984 10.4348Z" fill="#D80027"/>
<path d="M15.1305 15.1305L20.4853 20.4853C20.7316 20.2391 20.9665 19.9817 21.1906 19.7149L16.6062 15.1304H15.1305V15.1305Z" fill="#D80027"/>
<path d="M8.86957 15.1305H8.86947L3.51471 20.4853C3.7609 20.7315 4.01829 20.9665 4.2851 21.1906L8.86957 16.6061V15.1305Z" fill="#D80027"/>
<path d="M8.86951 8.86963V8.86954L3.5147 3.51468C3.26842 3.76087 3.03348 4.01826 2.80933 4.28507L7.39384 8.86959L8.86951 8.86963Z" fill="#D80027"/>
<path d="M15.1305 8.86964L20.4853 3.51473C20.2391 3.26845 19.9817 3.03351 19.7149 2.8094L15.1305 7.39392V8.86964Z" fill="#D80027"/>
</svg>
