<svg width="18" height="23" viewBox="0 0 18 23" fill="none" xmlns="http://www.w3.org/2000/svg">
<path d="M11.7963 19C11.7963 19.3111 11.7208 19.6191 11.5742 19.9065C11.4276 20.1939 11.2127 20.455 10.9417 20.675C10.6708 20.895 10.3491 21.0695 9.99514 21.1885C9.64114 21.3075 9.26173 21.3688 8.87857 21.3688C8.4954 21.3688 8.11599 21.3075 7.76199 21.1885C7.40799 21.0695 7.08634 20.895 6.8154 20.675C6.54447 20.455 6.32955 20.1939 6.18292 19.9065C6.03629 19.6191 5.96082 19.3111 5.96082 19" stroke="white" stroke-width="2" stroke-linecap="round"/>
<path d="M16.4086 12.2187L16.6661 12.8039C17.648 15.0361 16.3692 17.6452 14.074 18.0925L13.9181 18.1228C10.5865 18.772 7.17026 18.772 3.83864 18.1228C1.52463 17.6719 0.300413 14.9732 1.42017 12.7914L1.6404 12.3623C2.24171 11.1906 2.5566 9.8795 2.5566 8.54738L2.5566 7.19253C2.5566 4.91224 3.78091 2.8284 5.7175 1.81249C7.71574 0.764239 10.0573 0.728578 12.0834 1.71554L12.2824 1.81249C14.3578 2.82341 15.6865 5.01366 15.6865 7.42366L15.6865 8.76758C15.6865 9.95959 15.9329 11.1373 16.4086 12.2187Z" stroke="white" stroke-width="2"/>
</svg>
